<?xml version="1.0" encoding="UTF-8" standalone="no"?>
<!-- Created with Inkscape (http://www.inkscape.org/) -->

<svg
   xmlns:dc="http://purl.org/dc/elements/1.1/"
   xmlns:cc="http://creativecommons.org/ns#"
   xmlns:rdf="http://www.w3.org/1999/02/22-rdf-syntax-ns#"
   xmlns:svg="http://www.w3.org/2000/svg"
   xmlns="http://www.w3.org/2000/svg"
   xmlns:sodipodi="http://sodipodi.sourceforge.net/DTD/sodipodi-0.dtd"
   xmlns:inkscape="http://www.inkscape.org/namespaces/inkscape"
   width="210mm"
   height="297mm"
   viewBox="0 0 744.09448819 1052.3622047"
   id="svg5597"
   version="1.1"
   inkscape:version="0.91 r13725"
   sodipodi:docname="drawing.svg">
  <defs
     id="defs5599">
    <inkscape:perspective
       sodipodi:type="inkscape:persp3d"
       inkscape:vp_x="0 : 526.1811 : 1"
       inkscape:vp_y="0 : 1000 : 0"
       inkscape:vp_z="744.09449 : 526.1811 : 1"
       inkscape:persp3d-origin="372.04724 : 350.7874 : 1"
       id="perspective4254" />
  </defs>
  <sodipodi:namedview
     id="base"
     pagecolor="#ffffff"
     bordercolor="#666666"
     borderopacity="1.0"
     inkscape:pageopacity="0.0"
     inkscape:pageshadow="2"
     inkscape:zoom="1.4"
     inkscape:cx="293.9163"
     inkscape:cy="866.86095"
     inkscape:document-units="px"
     inkscape:current-layer="layer1"
     showgrid="false"
     inkscape:window-width="1827"
     inkscape:window-height="1057"
     inkscape:window-x="1912"
     inkscape:window-y="-8"
     inkscape:window-maximized="1" />
  <metadata
     id="metadata5602">
    <rdf:RDF>
      <cc:Work
         rdf:about="">
        <dc:format>image/svg+xml</dc:format>
        <dc:type
           rdf:resource="http://purl.org/dc/dcmitype/StillImage" />
        <dc:title />
      </cc:Work>
    </rdf:RDF>
  </metadata>
  <g
     inkscape:label="Layer 1"
     inkscape:groupmode="layer"
     id="layer1">
    <path
       sodipodi:nodetypes="cccccccc"
       inkscape:connector-curvature="0"
       id="path4135-9"
       d="m 253.26508,65.671963 -138.48585,0 -6.62612,63.434807 -3.31306,6.95176 0,87.76597 3.31306,8.6897 7.28873,62.56583 135.8354,0"
       style="display:inline;fill:#dcffdc;stroke:#000000;stroke-width:2.69540644;stroke-linecap:butt;stroke-linejoin:miter;stroke-miterlimit:4;stroke-dasharray:none;stroke-opacity:1;fill-opacity:1" />
    <path
       sodipodi:nodetypes="csscccssccc"
       inkscape:connector-curvature="0"
       id="path4203"
       d="m 482.46199,89.134143 c 0,0 -5.96353,29.544987 -5.96353,45.186447 0,15.64146 0,74.73142 0,90.37288 0,15.64146 5.96353,47.79335 5.96353,47.79335 l 96.74132,23.46218 51.0211,10e-6 c 0,0 6.62609,-50.40026 6.62609,-71.25554 0,-20.85528 0,-67.77967 0,-91.24185 0,-23.46219 -6.62609,-67.779667 -6.62609,-67.779667 l -51.0211,0 z"
       style="display:inline;fill:#dcffdc;stroke:#000000;stroke-width:2.69540644;stroke-linecap:butt;stroke-linejoin:miter;stroke-miterlimit:4;stroke-dasharray:none;stroke-opacity:1;fill-opacity:1" />
    <path
       sodipodi:nodetypes="csscsccsc"
       inkscape:connector-curvature="0"
       id="path4205"
       d="m 487.7629,100.43076 c 0,0 -3.97568,25.20013 -3.97568,34.7588 0,9.55866 0,77.33833 0,89.50391 0,12.16558 3.31306,35.62776 3.31306,35.62776 0,0 44.39496,16.51044 58.30981,16.51044 13.91485,0 19.87837,0 19.87837,0 l 0,-192.911347 c 0,0 -10.60182,0 -22.52883,0 -11.927,0 -54.99673,16.510437 -54.99673,16.510437 z"
       style="display:inline;fill:#dbf4ff;fill-opacity:1;stroke:#000000;stroke-width:2.69540644;stroke-linecap:butt;stroke-linejoin:miter;stroke-miterlimit:4;stroke-dasharray:none;stroke-opacity:1" />
    <path
       style="display:inline;fill:#dcffdc;stroke:#000000;stroke-width:2.69540644;stroke-linecap:butt;stroke-linejoin:miter;stroke-miterlimit:4;stroke-dasharray:none;stroke-opacity:1;fill-opacity:1"
       d="m 86.465681,127.18752 0.662614,-56.482987 c 0,0 2.650448,-14.77251 -11.927011,-15.64149 -14.577461,-0.86898 -12.589622,1.73797 -12.589622,1.73797 l 0.662603,256.346137 c 0,0 4.638287,0 13.252238,0 13.252243,0 10.601792,-13.90352 10.601792,-13.90352 l -4e-6,-59.08994 c -5.967547,0 -5.300889,-5.93523 -5.300889,-10.42769 0,-10.46375 -5e-6,-84.29004 -5e-6,-92.11079 0.211997,-11.66169 4.638284,-10.42769 4.638284,-10.42769 z"
       id="path4245"
       inkscape:connector-curvature="0"
       sodipodi:nodetypes="ccsccsccccc" />
    <path
       style="display:inline;fill:none;stroke:#000000;stroke-width:2.69540644;stroke-linecap:butt;stroke-linejoin:miter;stroke-miterlimit:4;stroke-dasharray:none;stroke-opacity:1"
       d="m 62.64503,55.244363 c 0,0 -1.987831,-7.82074 -8.613951,-7.82074 -6.626119,0 -6.626119,5.2138 -6.626119,5.2138 l 0,261.559937 c 0,0 0.66261,6.08288 6.626119,6.08288 5.963501,0 8.613951,-6.08288 8.613951,-6.08288"
       id="path4377"
       inkscape:connector-curvature="0"
       sodipodi:nodetypes="csccsc" />
    <path
       style="display:inline;fill:#dcffdc;stroke:#000000;stroke-width:2.69540644;stroke-linecap:butt;stroke-linejoin:miter;stroke-miterlimit:4;stroke-dasharray:none;stroke-opacity:1;fill-opacity:1"
       d="m 45.557754,55.244363 c 0,0 -23.85402,-0.86898 -23.85402,13.03455 l 0,229.408067 c 0,13.90353 26.504469,13.90353 26.504469,13.90353"
       id="path4381"
       inkscape:connector-curvature="0"
       sodipodi:nodetypes="cssc" />
    <path
       style="display:inline;fill:none;stroke:#000000;stroke-width:2.69540644;stroke-linecap:butt;stroke-linejoin:miter;stroke-miterlimit:4;stroke-dasharray:none;stroke-opacity:1"
       d="m 651.04425,56.750943 0,45.186497 31.80534,0 0,-51.269187 -11.92701,-8.68982 z"
       id="path4499"
       inkscape:connector-curvature="0"
       sodipodi:nodetypes="cccccc" />
    <path
       style="display:inline;fill:none;stroke:#000000;stroke-width:2.69540644;stroke-linecap:butt;stroke-linejoin:miter;stroke-miterlimit:4;stroke-dasharray:none;stroke-opacity:1"
       d="m 651.04425,260.09002 31.80534,0 0,48.66225 -11.2644,8.68973 -20.54094,-11.29668 z"
       id="path4501"
       inkscape:connector-curvature="0"
       sodipodi:nodetypes="cccccc" />
    <rect
       style="display:inline;fill:none;stroke:#000000;stroke-width:1.73573339;stroke-miterlimit:4;stroke-dasharray:none;stroke-opacity:1"
       id="rect4534"
       width="17.316294"
       height="90.488823"
       x="658.68915"
       y="134.69724" />
    <path
       style="display:inline;fill:none;stroke:#000000;stroke-width:2.69540644;stroke-linecap:butt;stroke-linejoin:miter;stroke-miterlimit:4;stroke-dasharray:none;stroke-opacity:1"
       d="m 682.97118,51.265213 c 0,0 1.98784,-7.82075 8.61394,-7.82075 6.62614,0 6.62614,5.21389 6.62614,5.21389 l 0,261.559857 c 0,0 -0.66262,6.08287 -6.62614,6.08287 -5.96348,0 -8.61394,-6.08287 -8.61394,-6.08287"
       id="path4377-2"
       inkscape:connector-curvature="0"
       sodipodi:nodetypes="csccsc" />
    <path
       style="display:inline;fill:#dcffdc;stroke:#000000;stroke-width:2.69540644;stroke-linecap:butt;stroke-linejoin:miter;stroke-miterlimit:4;stroke-dasharray:none;stroke-opacity:1;fill-opacity:1"
       d="m 698.87387,51.265213 c 0,0 16.56526,-0.86899 16.56526,13.03454 0,13.90352 0,215.504547 0,229.408077 0,13.90352 -17.22787,15.64149 -17.22787,15.64149"
       id="path4381-0"
       inkscape:connector-curvature="0"
       sodipodi:nodetypes="cssc" />
    <path
       style="display:inline;fill:none;stroke:#000000;stroke-width:1.07816255;stroke-linecap:butt;stroke-linejoin:miter;stroke-miterlimit:4;stroke-dasharray:none;stroke-opacity:1"
       d="m 650.45074,56.113343 31.80534,46.055397"
       id="path4585"
       inkscape:connector-curvature="0" />
    <path
       style="display:inline;fill:none;stroke:#000000;stroke-width:1.07816255;stroke-linecap:butt;stroke-linejoin:miter;stroke-miterlimit:4;stroke-dasharray:none;stroke-opacity:1"
       d="M 650.45074,102.53449 682.25608,57.347993"
       id="path4587"
       inkscape:connector-curvature="0"
       sodipodi:nodetypes="cc" />
    <path
       style="display:inline;fill:none;stroke:#000000;stroke-width:1.07816255;stroke-linecap:butt;stroke-linejoin:miter;stroke-miterlimit:4;stroke-dasharray:none;stroke-opacity:1"
       d="m 650.55562,259.93213 31.80534,46.0554"
       id="path4585-9"
       inkscape:connector-curvature="0" />
    <path
       style="display:inline;fill:none;stroke:#000000;stroke-width:1.07816255;stroke-linecap:butt;stroke-linejoin:miter;stroke-miterlimit:4;stroke-dasharray:none;stroke-opacity:1"
       d="m 650.55562,306.35328 31.80534,-45.18641"
       id="path4587-0"
       inkscape:connector-curvature="0"
       sodipodi:nodetypes="cc" />
    <g
       style="display:inline"
       id="g3952"
       transform="matrix(0.47074033,0,0,0.61734381,130.25048,-320.62888)">
      <circle
         transform="translate(-79.458203,449.80248)"
         id="path3857"
         style="fill:#3c3c3c;fill-opacity:1;stroke:#000000;stroke-width:2;stroke-linecap:butt;stroke-linejoin:miter;stroke-miterlimit:4;stroke-dasharray:none;stroke-dashoffset:0;stroke-opacity:1"
         cx="-81.640511"
         cy="188.75949"
         r="4.222785" />
      <circle
         transform="translate(-79.458203,569.9172)"
         id="path3857-2"
         style="display:inline;fill:#3c3c3c;fill-opacity:1;stroke:#000000;stroke-width:2;stroke-linecap:butt;stroke-linejoin:miter;stroke-miterlimit:4;stroke-dasharray:none;stroke-dashoffset:0;stroke-opacity:1"
         cx="-81.640511"
         cy="188.75949"
         r="4.222785" />
      <circle
         transform="translate(-79.458203,690.03203)"
         id="path3857-3"
         style="display:inline;fill:#3c3c3c;fill-opacity:1;stroke:#000000;stroke-width:2;stroke-linecap:butt;stroke-linejoin:miter;stroke-miterlimit:4;stroke-dasharray:none;stroke-dashoffset:0;stroke-opacity:1"
         cx="-81.640511"
         cy="188.75949"
         r="4.222785" />
      <circle
         transform="translate(-79.458203,810.14679)"
         id="path3857-7"
         style="display:inline;fill:#3c3c3c;fill-opacity:1;stroke:#000000;stroke-width:2;stroke-linecap:butt;stroke-linejoin:miter;stroke-miterlimit:4;stroke-dasharray:none;stroke-dashoffset:0;stroke-opacity:1"
         cx="-81.640511"
         cy="188.75949"
         r="4.222785" />
    </g>
    <g
       style="display:inline"
       id="g3946"
       transform="matrix(0.47074033,0,0,0.61734381,79.229383,-323.73905)">
      <circle
         transform="translate(1381.6254,448.24805)"
         id="path3857-97"
         style="display:inline;fill:#3c3c3c;fill-opacity:1;stroke:#000000;stroke-width:2;stroke-linecap:butt;stroke-linejoin:miter;stroke-miterlimit:4;stroke-dasharray:none;stroke-dashoffset:0;stroke-opacity:1"
         cx="-81.640511"
         cy="188.75949"
         r="4.222785" />
      <circle
         transform="translate(1381.6254,568.36277)"
         id="path3857-2-3"
         style="display:inline;fill:#3c3c3c;fill-opacity:1;stroke:#000000;stroke-width:2;stroke-linecap:butt;stroke-linejoin:miter;stroke-miterlimit:4;stroke-dasharray:none;stroke-dashoffset:0;stroke-opacity:1"
         cx="-81.640511"
         cy="188.75949"
         r="4.222785" />
      <circle
         transform="translate(1381.6254,688.4776)"
         id="path3857-3-6"
         style="display:inline;fill:#3c3c3c;fill-opacity:1;stroke:#000000;stroke-width:2;stroke-linecap:butt;stroke-linejoin:miter;stroke-miterlimit:4;stroke-dasharray:none;stroke-dashoffset:0;stroke-opacity:1"
         cx="-81.640511"
         cy="188.75949"
         r="4.222785" />
      <circle
         transform="translate(1381.6254,808.59236)"
         id="path3857-7-1"
         style="display:inline;fill:#3c3c3c;fill-opacity:1;stroke:#000000;stroke-width:2;stroke-linecap:butt;stroke-linejoin:miter;stroke-miterlimit:4;stroke-dasharray:none;stroke-dashoffset:0;stroke-opacity:1"
         cx="-81.640511"
         cy="188.75949"
         r="4.222785" />
    </g>
    <path
       sodipodi:nodetypes="ccssccccc"
       inkscape:connector-curvature="0"
       id="path4165"
       d="m 251.2105,65.671953 66.26117,23.46219 c 0,0 -3.97567,30.387027 -3.97567,44.426097 0,12.43685 0,76.79522 0,91.13323 0,19.11733 3.97567,48.66232 3.97567,48.66232 l -66.26117,20.85528 c 0,0 -8.11699,-38.21495 -8.11699,-57.35202 0.18081,-20.86741 0.82807,-95.56449 0.99392,-114.70404 -0.66261,-19.11735 7.12307,-56.483057 7.12307,-56.483057 z"
       style="display:inline;fill:#dbf4ff;fill-opacity:1;stroke:#000000;stroke-width:2.69540644;stroke-linecap:butt;stroke-linejoin:miter;stroke-miterlimit:4;stroke-dasharray:none;stroke-opacity:1" />
    <a
       id="a4251" />
    <path
       style="fill:#dcffdc;fill-rule:evenodd;stroke:#000000;stroke-width:2.7;stroke-linecap:butt;stroke-linejoin:miter;stroke-opacity:1;fill-opacity:1;stroke-miterlimit:4;stroke-dasharray:none"
       d="M 317.14286,87.362204 484.28571,88.790775 475,125.21935 l 1.42857,106.42857 7.14286,40.71428 -164.28572,0.71429 -7.14285,-37.85714 1.42857,-107.85715 z"
       id="path4284"
       inkscape:connector-curvature="0" />
    <rect
       style="fill:#dcffdc;fill-opacity:1;stroke:#000000;stroke-width:2.70583391;stroke-miterlimit:4;stroke-dasharray:none;stroke-opacity:1"
       id="rect4286"
       width="32.137024"
       height="157.8513"
       x="650.71722"
       y="102.36512" />
    <path
       style="fill:none;fill-rule:evenodd;stroke:#000000;stroke-width:2;stroke-linecap:butt;stroke-linejoin:miter;stroke-opacity:1;stroke-miterlimit:4;stroke-dasharray:none"
       d="m 62.857143,128.07649 23.571429,0"
       id="path4288"
       inkscape:connector-curvature="0" />
    <path
       style="fill:none;fill-rule:evenodd;stroke:#000000;stroke-width:2;stroke-linecap:butt;stroke-linejoin:miter;stroke-opacity:1;stroke-miterlimit:4;stroke-dasharray:none"
       d="m 88.571429,240.21935 -25,-0.71429"
       id="path4290"
       inkscape:connector-curvature="0" />
  </g>
</svg>
