<?xml version="1.0" encoding="UTF-8" standalone="no"?>
<!-- Created with Inkscape (http://www.inkscape.org/) -->

<svg
   xmlns:dc="http://purl.org/dc/elements/1.1/"
   xmlns:cc="http://creativecommons.org/ns#"
   xmlns:rdf="http://www.w3.org/1999/02/22-rdf-syntax-ns#"
   xmlns:svg="http://www.w3.org/2000/svg"
   xmlns="http://www.w3.org/2000/svg"
   xmlns:sodipodi="http://sodipodi.sourceforge.net/DTD/sodipodi-0.dtd"
   xmlns:inkscape="http://www.inkscape.org/namespaces/inkscape"
   width="190mm"
   height="54mm"
   viewBox="0 0 673.22829 191.33847"
   id="svg3360"
   version="1.1"
   inkscape:version="0.91 r13725"
   sodipodi:docname="drawing2.svg">
  <defs
     id="defs3362" />
  <sodipodi:namedview
     id="base"
     pagecolor="#ffffff"
     bordercolor="#666666"
     borderopacity="1.0"
     inkscape:pageopacity="0.0"
     inkscape:pageshadow="2"
     inkscape:zoom="1.979899"
     inkscape:cx="333.55709"
     inkscape:cy="12.330751"
     inkscape:document-units="px"
     inkscape:current-layer="layer1"
     showgrid="false"
     inkscape:window-width="1827"
     inkscape:window-height="1057"
     inkscape:window-x="1912"
     inkscape:window-y="-8"
     inkscape:window-maximized="1" />
  <metadata
     id="metadata3365">
    <rdf:RDF>
      <cc:Work
         rdf:about="">
        <dc:format>image/svg+xml</dc:format>
        <dc:type
           rdf:resource="http://purl.org/dc/dcmitype/StillImage" />
        <dc:title></dc:title>
      </cc:Work>
    </rdf:RDF>
  </metadata>
  <g
     inkscape:label="Layer 1"
     inkscape:groupmode="layer"
     id="layer1"
     transform="translate(0,-861.02384)">
    <path
       sodipodi:nodetypes="ccccc"
       inkscape:connector-curvature="0"
       id="path3892"
       d="m 376.08188,882.72947 -2.30855,52.98796 111.59125,0 c -6.09096,-11.65767 -25.10832,-42.07773 -39.24539,-49.75442 -7.69517,-5.61744 -44.64324,-2.43104 -70.03731,-3.23354 z"
       style="fill:#dbf4ff;fill-opacity:1;stroke:#000000;stroke-width:2.75040817;stroke-linecap:butt;stroke-linejoin:miter;stroke-miterlimit:4;stroke-dasharray:none;stroke-opacity:1" />
    <path
       sodipodi:nodetypes="cscsc"
       inkscape:connector-curvature="0"
       id="path3896"
       d="m 466.04758,886.75371 c 0,0 43.09295,47.34695 46.17102,48.95193 3.07808,1.60498 62.33088,0.80249 62.33088,0.80249 0,0 -41.55394,-26.48219 -55.40525,-32.90211 -13.85131,-6.41993 -48.47957,-17.6548 -53.09665,-16.85231 z"
       style="fill:#dbf4ff;fill-opacity:1;stroke:#000000;stroke-width:2.75040817;stroke-linecap:butt;stroke-linejoin:miter;stroke-miterlimit:4;stroke-dasharray:none;stroke-opacity:1" />
    <path
       style="fill:#73f4ff;fill-rule:evenodd;stroke:#000000;stroke-width:2.74999967;stroke-linecap:butt;stroke-linejoin:miter;stroke-opacity:1;stroke-miterlimit:4;stroke-dasharray:none;fill-opacity:1"
       d="m 370.06394,874.37857 -7.37812,168.02233 -140.66217,0.5044 c 0,0 -6.62093,-5.4279 -10.89853,-17.2098 -3.5367,-9.7412 -5.7742,-24.0549 -5.74009,-41.53164 0.071,-36.38094 10.16165,-54.73217 10.16165,-54.73217 l 79.40554,-46.40447 c 0,0 12.38645,-4.79813 18.89255,-5.95917 18.46197,-3.29461 56.21917,-2.68948 56.21917,-2.68948 z"
       id="path3384"
       inkscape:connector-curvature="0"
       sodipodi:nodetypes="cccssccsc" />
    <path
       sodipodi:nodetypes="csccc"
       inkscape:connector-curvature="0"
       id="path3884"
       d="m 225.18877,935.70564 c 8.46468,-10.43237 66.45671,-45.79583 81.56879,-49.75442 15.89136,-4.16272 55.48432,-4.01246 55.48432,-4.01246 l -3.84758,53.76688 z"
       style="fill:#dbf4ff;fill-opacity:1;stroke:#000000;stroke-width:2.75019956;stroke-linecap:butt;stroke-linejoin:miter;stroke-miterlimit:4;stroke-dasharray:none;stroke-opacity:1" />
    <path
       style="fill:none;fill-rule:evenodd;stroke:#000000;stroke-width:2.74999967;stroke-linecap:butt;stroke-linejoin:miter;stroke-opacity:1;stroke-miterlimit:4;stroke-dasharray:none"
       d="m 369.94298,874.43821 -6.818,167.95179 89.06594,1.4425 c 3.64557,-21.3747 12.08742,-42.7936 24.90321,-56.50047 9.50964,-10.17081 19.34544,-11.54097 27.93048,-18.28851 4.21327,-3.31149 4.49764,-3.96031 3.77223,-8.23811 -12.86577,-39.53421 -37.26197,-57.94884 -58.54117,-82.0727 0,0 -19.92078,-3.13621 -29.96988,-3.82167 -16.7417,-1.14197 -50.34281,-0.47283 -50.34281,-0.47283 z"
       id="path3388"
       inkscape:connector-curvature="0"
       sodipodi:nodetypes="cccssccsc" />
    <path
       style="fill:none;fill-rule:evenodd;stroke:#000000;stroke-width:2.74999967;stroke-linecap:butt;stroke-linejoin:miter;stroke-opacity:1;stroke-miterlimit:4;stroke-dasharray:none"
       d="m 452.50367,1043.7705 12.08857,0.5897 c 0,0 11.4131,-59.80013 53.88074,-60.88007 38.88624,-0.98885 51.2841,59.87517 51.2841,59.87517 l 52.97734,-0.1194 c 0,0 6.64962,1.4735 9.15028,-0.251 5.57853,-3.8468 7.54122,-18.7164 7.54122,-18.7164 3.32426,-4.2382 5.08478,0.3123 8.49725,-7.6195 7.21132,-16.76176 -2.11437,-27.18338 -21.31826,-29.12226 l 3.14478,-28.39142 15.48196,2.38583 0.78565,-7.77201 c 0,0 -3.92288,-5.72204 -6.74636,-7.62659 -5.32109,-3.58928 -18.1916,-6.4741 -18.1916,-6.4741 l -24.75309,-5.69285 -8.57878,-2.48733 c 0,0 -53.1537,-30.81478 -81.83147,-41.57809 -8.69157,-3.2621 -27.02096,-6.84848 -27.02096,-6.84848 l -27.91365,-4.0704 c -0.61307,0.53747 52.73041,52.8447 57.55433,82.08501 1.40301,4.45049 0.4815,4.55183 -3.82166,8.58792 -3.71418,3.48365 -12.26683,6.36156 -16.79451,9.08966 -0.91115,0.54901 -4.41989,2.79571 -6.01815,4.22835 -4.11325,3.68704 -9.929,9.66824 -11.23971,12.10562 -1.89878,3.53091 -2.10549,4.14776 -3.91935,7.51654 -11.63635,21.6112 -14.23867,41.1861 -14.23867,41.1861 z"
       id="path3400"
       inkscape:connector-curvature="0"
       sodipodi:nodetypes="ccsccscsccccscccscccsssssc" />
    <path
       style="fill:none;fill-rule:evenodd;stroke:#000000;stroke-width:2.74999967;stroke-linecap:butt;stroke-linejoin:miter;stroke-opacity:1;stroke-miterlimit:4;stroke-dasharray:none"
       d="m 222.20747,1042.8614 c 0,0 -16.83989,-9.7477 -17.15546,-58.96573 -0.20836,-32.49531 10.95663,-54.88324 10.95663,-54.88324 l -25.4074,7.85899 -55.00253,5.45497 c 0,0 -33.97276,2.79753 -50.362618,7.08919 -10.68053,2.79668 -30.820443,12.04418 -30.820443,12.04418 l 21.771509,2.38583 -6.773351,24.33551 -26.609626,-0.47717 c -8.999288,1.93443 -7.354383,17.46527 -8.84954,28.68377 -0.690552,5.1814 7.0133,5.7656 10.784786,4.7179 0,0 5.405256,14.5322 12.095279,18.6095 10.018642,6.1059 34.35061,2.863 34.35061,2.863 0,0 6.038951,-57.58027 50.808894,-59.6546 51.76216,-2.39831 55.99246,59.7738 55.99246,59.7738 l 22.26737,0.1819 z"
       id="path3386"
       inkscape:connector-curvature="0"
       sodipodi:nodetypes="cscccsccccscscsccc" />
  </g>
</svg>
