<?xml version="1.0" encoding="UTF-8" standalone="no"?>
<svg
   xmlns:dc="http://purl.org/dc/elements/1.1/"
   xmlns:cc="http://creativecommons.org/ns#"
   xmlns:rdf="http://www.w3.org/1999/02/22-rdf-syntax-ns#"
   xmlns:svg="http://www.w3.org/2000/svg"
   xmlns="http://www.w3.org/2000/svg"
   xmlns:sodipodi="http://sodipodi.sourceforge.net/DTD/sodipodi-0.dtd"
   xmlns:inkscape="http://www.inkscape.org/namespaces/inkscape"
   viewBox="0 0 800 800"
   preserveAspectRatio="xMidYMid meet"
   id="svg2"
   version="1.1"
   inkscape:version="0.91 r13725"
   sodipodi:docname="car.svg">
  <metadata
     id="metadata18">
    <rdf:RDF>
      <cc:Work
         rdf:about="">
        <dc:format>image/svg+xml</dc:format>
        <dc:type
           rdf:resource="http://purl.org/dc/dcmitype/StillImage" />
      </cc:Work>
    </rdf:RDF>
  </metadata>
  <defs
     id="defs16" />
  <sodipodi:namedview
     pagecolor="#ffffff"
     bordercolor="#666666"
     borderopacity="1"
     objecttolerance="10"
     gridtolerance="10"
     guidetolerance="10"
     inkscape:pageopacity="0"
     inkscape:pageshadow="2"
     inkscape:window-width="1827"
     inkscape:window-height="1057"
     id="namedview14"
     showgrid="false"
     inkscape:zoom="0.295"
     inkscape:cx="400"
     inkscape:cy="400"
     inkscape:window-x="1912"
     inkscape:window-y="-8"
     inkscape:window-maximized="1"
     inkscape:current-layer="svg2" />
  <path
     sodipodi:nodetypes="csssscccsssscsccscccsscccssc"
     inkscape:connector-curvature="0"
     id="path3070"
     d="M 748.57143,752.85714 C 790,737.14285 888.57143,741.42857 940,740 c 51.42857,-1.42857 160.4745,10.23062 201.4286,27.14286 40.9958,16.92944 134.7843,67.65586 151.4285,72.85714 22.8572,7.14286 41.4286,7.14286 80,20 38.5715,12.85714 25.7143,32.85714 25.7143,32.85714 l -30,-4.28571 -5.7562,52.92008 c 0,0 37.1848,1.36563 41.4705,15.65135 4.2857,14.28571 5.7143,31.42857 -2.8571,41.42857 -8.5715,9.99997 -14.2857,-1.42857 -18.5715,12.85717 -4.2857,14.2857 -2.8571,28.5714 -27.1428,27.1428 -24.2857,-1.4285 -98.5715,0 -98.5715,0 0,0 -15.7142,-108.5714 -98.5714,-105.71426 -82.8571,2.85715 -95.7143,105.71426 -95.7143,105.71426 l -499.99996,0 c 0,0 -5.71428,-104.28569 -97.14286,-105.71426 -91.42857,-1.42857 -98.57142,105.71426 -98.57142,105.71426 l -65.71429,0 L 282.85714,1000 c -0.51524,0 -26.24328,-10e-6 -21.42857,-17.14285 4.65143,-16.56149 -4.28571,-41.42858 17.14286,-41.42858 21.42857,0 47.14286,1.42857 47.14286,1.42857 L 341.42857,898.57143 300,895.71429 c 0,0 34.28571,-24.28572 118.57143,-32.85715 84.28571,-8.57143 157.14286,-8.57143 192.85714,-31.42857 35.71429,-22.85714 137.14286,-78.57143 137.14286,-78.57143 z"
     style="fill:none;stroke:#000000;stroke-width:5;stroke-linecap:butt;stroke-linejoin:miter;stroke-miterlimit:4;stroke-dasharray:none;stroke-opacity:1" />
  <path
     sodipodi:nodetypes="csccc"
     inkscape:connector-curvature="0"
     id="path3884"
     d="M 618.57143,847.14286 C 634.28572,828.57143 741.94515,765.61839 770,758.57143 c 29.50156,-7.41035 103.00398,-7.14286 103.00398,-7.14286 l -7.14285,95.71429 z"
     style="fill:#f0ffeb;fill-opacity:1;stroke:#000000;stroke-width:5;stroke-linecap:butt;stroke-linejoin:miter;stroke-miterlimit:4;stroke-dasharray:none;stroke-opacity:1" />
  <path
     sodipodi:nodetypes="ccccc"
     inkscape:connector-curvature="0"
     id="path3892"
     d="m 898.69729,752.83617 -4.28572,94.32767 207.16383,0 c -11.3076,-20.75266 -46.6124,-74.9056 -72.8572,-88.57143 -14.2857,-10 -82.87805,-4.32767 -130.02091,-5.75624 z"
     style="fill:#f0ffeb;fill-opacity:1;stroke:#000000;stroke-width:5;stroke-linecap:butt;stroke-linejoin:miter;stroke-miterlimit:4;stroke-dasharray:none;stroke-opacity:1" />
  <path
     sodipodi:nodetypes="cscsc"
     inkscape:connector-curvature="0"
     id="path3896"
     d="m 1065.7143,760 c 0,0 80,84.28571 85.7143,87.14286 5.7143,2.85714 115.7143,1.42857 115.7143,1.42857 0,0 -77.1429,-47.14286 -102.8572,-58.57143 -25.7143,-11.42857 -90,-31.42857 -98.5714,-30 z"
     style="fill:#f0ffeb;fill-opacity:1;stroke:#000000;stroke-width:5;stroke-linecap:butt;stroke-linejoin:miter;stroke-miterlimit:4;stroke-dasharray:none;stroke-opacity:1" />
  <path
     sodipodi:nodetypes="csc"
     inkscape:connector-curvature="0"
     id="path3900"
     d="m 599.63544,837.66076 c -14.07595,30.96709 -18.29873,71.78734 -18.29873,94.30886 0,22.52152 4.22279,91.49368 22.52152,105.56958"
     style="fill:none;stroke:#000000;stroke-width:5;stroke-linecap:butt;stroke-linejoin:miter;stroke-miterlimit:4;stroke-dasharray:none;stroke-opacity:1" />
  <path
     sodipodi:nodetypes="cssc"
     inkscape:connector-curvature="0"
     id="path3942"
     d="m 1033.1747,746.16708 c 18.2988,12.66836 56.3038,50.67343 92.9012,104.16203 36.5975,53.48861 8.4456,59.11899 -18.2987,74.60254 -26.7443,15.48354 -49.2658,42.22784 -67.5645,112.60755"
     style="fill:none;stroke:#000000;stroke-width:5;stroke-linecap:butt;stroke-linejoin:miter;stroke-miterlimit:4;stroke-dasharray:none;stroke-opacity:1" />
</svg>
